{"accessors":[{"bufferView":2,"componentType":5126,"count":348,"max":[0.3277222514152527,5,0.3784210681915283],"min":[-0.3277222216129303,0,-0.37842097878456116],"type":"VEC3"},{"bufferView":2,"byteOffset":4176,"componentType":5126,"count":348,"max":[1,1,0.8660255074501038],"min":[-1,-1,-0.8660255074501038],"type":"VEC3"},{"bufferView":1,"componentType":5126,"count":348,"max":[1,1],"min":[-8.940696716308594e-8,0.01000000536441803],"type":"VEC2"},{"bufferView":0,"componentType":5125,"count":528,"max":[347],"min":[0],"type":"SCALAR"},{"bufferView":2,"byteOffset":8352,"componentType":5126,"count":24,"max":[0.27003616094589233,4.502577304840088,0.29893794655799866],"min":[-0.27003616094589233,3.9136393070220947,-0.29893791675567627],"type":"VEC3"},{"bufferView":2,"byteOffset":8640,"componentType":5126,"count":24,"max":[0.9785488247871399,-0.20601549744606018,0.8474481105804443],"min":[-0.9785488247871399,-0.20601554214954376,-0.8474481701850891],"type":"VEC3"},{"bufferView":1,"byteOffset":2784,"componentType":5126,"count":24,"max":[0.98570716381073,0.9505653381347656],"min":[0.014292747713625431,0.891363799571991],"type":"VEC2"},{"bufferView":0,"byteOffset":2112,"componentType":5125,"count":36,"max":[23],"min":[0],"type":"SCALAR"}],"asset":{"extras":{"author":"omiyaio (https://sketchfab.com/omiyaio)","license":"CC-BY-4.0 (http://creativecommons.org/licenses/by/4.0/)","source":"https://sketchfab.com/3d-models/lamp-post-1-796e4312613e427ab8b8c3c51d6aa834","title":"Lamp Post 1"},"generator":"Sketchfab-7.72.0","version":"2.0"},"bufferViews":[{"buffer":0,"byteLength":2256,"byteOffset":0,"name":"floatBufferViews","target":34963},{"buffer":0,"byteLength":2976,"byteOffset":2256,"byteStride":8,"name":"floatBufferViews","target":34962},{"buffer":0,"byteLength":8928,"byteOffset":5232,"byteStride":12,"name":"floatBufferViews","target":34962}],"buffers":[{"byteLength":14160,"uri":"eb808d9977bbc5c4aca9787a4c3f50ad.bin"}],"materials":[{"doubleSided":true,"emissiveFactor":[0,0,0],"name":"","pbrMetallicRoughness":{"baseColorFactor":[0.003991118583598921,0.03564081245896186,0.03298323826478292,1],"metallicFactor":1,"roughnessFactor":0.4956173780487805}},{"doubleSided":true,"emissiveFactor":[1,1,1],"name":"","pbrMetallicRoughness":{"baseColorFactor":[1,1,1,1],"metallicFactor":1,"roughnessFactor":1}}],"meshes":[{"primitives":[{"attributes":{"NORMAL":1,"POSITION":0,"TEXCOORD_0":2},"indices":3,"material":0,"mode":4}]},{"primitives":[{"attributes":{"NORMAL":5,"POSITION":4,"TEXCOORD_0":6},"indices":7,"material":1,"mode":4}]}],"nodes":[{"children":[1],"name":"RootNode (gltf orientation matrix)","rotation":[-0.7071067811865475,0,0,0.7071067811865476]},{"children":[2],"name":"RootNode (model correction matrix)"},{"children":[3],"name":"root"},{"children":[4],"matrix":[1,0,0,0,0,2.220446049250313e-16,1,0,0,-1,2.220446049250313e-16,0,0,0,0,1],"name":"GLTF_SceneRootNode"},{"children":[5,6],"name":"Cylinder_0"},{"mesh":0,"name":""},{"mesh":1,"name":""}],"scene":0,"scenes":[{"name":"OSG_Scene","nodes":[0]}]}