{"accessors":[{"bufferView":2,"componentType":5126,"count":10080,"max":[1.7170145511627197,0.018242113292217255,1.959686279296875],"min":[-1.7170151472091675,-0.018242090940475464,-2.05434250831604],"type":"VEC3"},{"bufferView":2,"byteOffset":120960,"componentType":5126,"count":10080,"max":[0.8601822257041931,0.8273314237594604,0.8371677994728088],"min":[-0.8601822257041931,-0.8273314237594604,-0.8323103189468384],"type":"VEC3"},{"bufferView":1,"componentType":5126,"count":10080,"max":[0.9977922439575195,0.9973623752593994],"min":[0.002207719022408128,0.002207719022408128],"type":"VEC2"},{"bufferView":0,"componentType":5125,"count":19200,"type":"SCALAR"}],"asset":{"extras":{"author":"invisiprim (https://sketchfab.com/invisiprim)","license":"CC-BY-4.0 (http://creativecommons.org/licenses/by/4.0/)","source":"https://sketchfab.com/3d-models/rabitz-grid-pattern-ebbc0b00de1c4144a531ee266d6d3722","title":"Rabitz Grid Pattern"},"generator":"Sketchfab-12.1.0","version":"2.0"},"bufferViews":[{"buffer":0,"byteLength":76800,"name":"floatBufferViews","target":34963},{"buffer":0,"byteLength":80640,"byteOffset":76800,"byteStride":8,"name":"floatBufferViews","target":34962},{"buffer":0,"byteLength":241920,"byteOffset":157440,"byteStride":12,"name":"floatBufferViews","target":34962}],"buffers":[{"byteLength":399360,"uri":"c733b515e65942a9451973556e4c521c.bin"}],"materials":[{"doubleSided":true,"name":"","pbrMetallicRoughness":{"baseColorFactor":[0.8,0.8,0.8,1],"roughnessFactor":0.0422948505}}],"meshes":[{"name":"","primitives":[{"attributes":{"NORMAL":1,"POSITION":0,"TEXCOORD_0":2},"indices":3,"material":0,"mode":4}]}],"nodes":[{"children":[1],"matrix":[1,0,0,0,0,2.220446049250313e-16,-1,0,0,1,2.220446049250313e-16,0,0,0,0,1],"name":"Sketchfab_model"},{"children":[2],"matrix":[1,0,0,0,0,0,1,0,0,-1,0,0,0,0,0,1],"name":""},{"children":[3],"name":"RootNode"},{"children":[4],"matrix":[100,0,0,0,0,-0.00001629206793918314,-99.99999999999868,0,0,99.99999999999868,-0.00001629206793918314,0,0,0,0,1],"name":""},{"mesh":0,"name":"Plane.001_Material.002_0"}],"scene":0,"scenes":[{"name":"Sketchfab_Scene","nodes":[0]}]}